<svg xmlns="http://www.w3.org/2000/svg" aria-hidden="true" style="position:absolute;width:0;height:0;overflow:hidden">
  <defs>
    <symbol id="icon-arrow" viewBox="0 0 32 32">
      <path fill="#80232d" d="M16 31c8.284 0 15-6.716 15-15S24.284 1 16 1C7.716 1 1 7.716 1 16s6.716 15 15 15z" style="fill:var(--color1, #80232d)"/>
      <path fill="#fff3e9" d="m16.85 8 7.65 8-7.65 8v-5.3H7.5v-5.15h9.35V8z" style="fill:var(--color2, #fff3e9)"/>
    </symbol>
    <symbol id="icon-arrow-left" viewBox="0 0 32 32">
      <path d="M16 0c7.953 0 14.4 6.447 14.4 14.4S23.953 28.8 16 28.8 1.6 22.353 1.6 14.4 8.047 0 16 0z"/>
      <path fill="none" stroke="#ffc03a" stroke-width=".8" d="M16 .4c7.732 0 14 6.268 14 14s-6.268 14-14 14-14-6.268-14-14S8.268.4 16 .4z" style="stroke:var(--color3, #ffc03a)"/>
      <path fill="none" stroke="#fff3e9" stroke-linecap="round" stroke-linejoin="round" stroke-width=".8" d="m18.4 19.2-4.8-4.8 4.8-4.8" style="stroke:var(--color2, #fff3e9)"/>
    </symbol>
    <symbol id="icon-arrow-right" viewBox="0 0 32 32">
      <path d="M16 0c7.953 0 14.4 6.447 14.4 14.4S23.953 28.8 16 28.8 1.6 22.353 1.6 14.4 8.047 0 16 0z"/>
      <path fill="none" stroke="#ffc03a" stroke-width=".8" d="M16 .4c7.732 0 14 6.268 14 14s-6.268 14-14 14-14-6.268-14-14S8.268.4 16 .4z" style="stroke:var(--color3, #ffc03a)"/>
      <path fill="none" stroke="#fff3e9" stroke-linecap="round" stroke-linejoin="round" stroke-width=".8" d="m13.6 19.2 4.8-4.8-4.8-4.8" style="stroke:var(--color2, #fff3e9)"/>
    </symbol>
    <symbol id="icon-arrow-back" viewBox="0 0 32 32">
      <path fill="none" stroke="#fff3e9" stroke-linecap="round" stroke-linejoin="round" stroke-width="1.333" d="M21.333 26 10.666 16 21.333 6" style="stroke:var(--color2, #fff3e9)"/>
    </symbol>
    <symbol id="icon-check" viewBox="0 0 32 32">
      <path fill="#ffc03a" d="M31.5 9.4c0 .533-.187.987-.56 1.36l-17.2 17.2c-.373.373-.827.56-1.36.56s-.987-.187-1.36-.56L1.06 18c-.373-.373-.56-.827-.56-1.36s.187-.987.56-1.36l2.72-2.72c.373-.373.827-.56 1.36-.56s.987.187 1.36.56l5.88 5.9L25.5 5.32c.373-.373.827-.56 1.36-.56s.987.187 1.36.56l2.72 2.72c.373.373.56.827.56 1.36z" style="fill:var(--color3, #ffc03a)"/>
    </symbol>
    <symbol id="icon-close" viewBox="0 0 32 32">
      <path fill="none" stroke="#ffc03a" stroke-width="1.333" d="M5.333.667h21.333a4.667 4.667 0 0 1 4.667 4.667v21.333a4.667 4.667 0 0 1-4.667 4.667H5.333a4.667 4.667 0 0 1-4.667-4.667V5.334A4.667 4.667 0 0 1 5.333.667z" style="stroke:var(--color3, #ffc03a)"/>
      <path fill="none" stroke="#fff3e9" stroke-linecap="round" stroke-linejoin="round" stroke-width="1.333" d="m7 7 9 9m0 0-9 9m9-9 9 9m-9-9 9-9" style="stroke:var(--color2, #fff3e9)"/>
    </symbol>
    <symbol id="icon-hand" viewBox="0 0 32 32">
      <path fill="#ffc03a" d="M12.571 29.714c-.631 0-1.17-.223-1.616-.67s-.67-.985-.67-1.616v-16l-2.696 3.607c-.488.643-1.125.964-1.911.964-.619 0-1.149-.226-1.589-.679s-.661-.988-.661-1.607c0-.512.155-.97.464-1.375l6.857-9.143c.452-.607 1.06-.911 1.821-.911h12.822c.262 0 .497.08.705.241s.342.366.402.616l1.643 6.571a14.22 14.22 0 0 1 .429 3.464v3.875c0 .488-.167.911-.5 1.268s-.738.536-1.214.536-.881-.167-1.214-.5a1.654 1.654 0 0 1-.5-1.214h-.571v1.089c0 .571-.191 1.057-.571 1.455s-.857.598-1.429.598c-.548 0-1.018-.196-1.411-.589s-.589-.863-.589-1.411V17.14h-.571v1.607c0 .655-.22 1.217-.661 1.688s-.982.705-1.625.705c-.631 0-1.17-.223-1.616-.67s-.67-.985-.67-1.616V17.14h-.571v10.178c0 .655-.22 1.217-.661 1.688s-.982.705-1.625.705zm0 2.286c1.274 0 2.354-.461 3.241-1.384s1.33-2.021 1.33-3.295v-3.928c.262.024.452.036.571.036 1.178 0 2.208-.411 3.089-1.232.56.25 1.149.375 1.768.375 1.345 0 2.44-.518 3.286-1.554.321.083.655.125 1 .125 1.119 0 2.066-.402 2.839-1.205s1.161-1.765 1.161-2.884v-3.875c0-1.381-.167-2.72-.5-4.018L28.713 2.59c-.191-.762-.595-1.384-1.214-1.866S26.177.001 25.392.001H12.57c-.714 0-1.396.164-2.045.491s-1.188.771-1.616 1.33l-6.857 9.143a4.468 4.468 0 0 0-.911 2.75c0 1.25.443 2.324 1.33 3.223s1.955 1.348 3.205 1.348a4.46 4.46 0 0 0 2.321-.625v9.768c0 1.262.446 2.339 1.339 3.232S11.306 32 12.568 32zm2.286-25.143v6.857h-.571V6.857h.571zm4.572 0v6.857h-.571V6.857h.571zm4.571 0v6.857h-.571V6.857H24z" style="fill:var(--color3, #ffc03a)"/>
    </symbol>
   <symbol id="icon-mail" viewBox="0 0 24 24" fill="none">
  <path d="M20.901 3.89317C20.0508 3.11317 15.5082 2.90137 11.7222 2.90137C7.93616 2.90137 3.41516 3.11377 2.54336 3.89317C0.856756 4.67317 0.535156 8.67817 0.535156 11.6902C0.535156 13.9198 0.711556 16.6936 1.48736 18.3004C1.80836 18.9652 2.40176 19.792 3.08216 20.1064C3.93656 20.8876 8.48036 21.0994 12.261 21.0994C16.041 21.0994 20.5734 20.9164 21.4392 20.1076C23.1612 19.3276 23.4648 15.3232 23.4648 12.3106C23.4648 10.351 23.3214 7.96957 22.7568 6.33097C22.4526 5.45137 21.792 4.30657 20.901 3.89317Z" fill="#210F0F" stroke="#210F0F" stroke-width="0.5" stroke-miterlimit="10" />
  <path d="M20.901 19.4866C22.6212 18.7066 22.9254 14.7022 22.9254 11.6902C22.9254 8.67817 22.587 4.67377 20.901 3.89317C20.0508 3.11317 15.5082 2.90137 11.7222 2.90137C7.93616 2.90137 3.41516 3.11377 2.54336 3.89317C0.856756 4.67317 0.535156 8.67817 0.535156 11.6902C0.535156 14.7022 0.856756 18.706 2.54336 19.4866C3.39776 20.2666 7.94155 20.4778 11.7216 20.4778C15.5016 20.4778 20.0346 20.2954 20.901 19.4866Z" fill="#FFC03A" stroke="#210F0F" stroke-width="0.5" stroke-miterlimit="10" />
  <path d="M2.92773 7.6748C5.02173 9.8606 8.05593 12.224 8.99073 12.6308C9.84071 13.0474 10.7747 13.264 11.7213 13.264C12.6679 13.264 13.602 13.0474 14.4519 12.6308C15.3819 12.2642 18.4161 9.8834 20.5101 7.6748M8.52573 12.488L4.53393 16.4858M14.9169 12.488L18.9159 16.4858" stroke="#210F0F" stroke-width="0.5" stroke-miterlimit="10" stroke-linecap="round" />
</symbol>
    <symbol id="icon-menu" viewBox="0 0 32 32">
      <path fill="none" stroke="#ffc03a" stroke-width="1.333" d="M5.333.667h21.333a4.667 4.667 0 0 1 4.667 4.667v21.333a4.667 4.667 0 0 1-4.667 4.667H5.333a4.667 4.667 0 0 1-4.667-4.667V5.334A4.667 4.667 0 0 1 5.333.667z" style="stroke:var(--color3, #ffc03a)"/>
      <path fill="none" stroke="#fff3e9" stroke-linecap="round" stroke-width="1.333" d="M7.5 9.5h17m-17 12h17m-17-6h17" style="stroke:var(--color2, #fff3e9)"/>
    </symbol>
    <symbol id="icon-quote" viewBox="0 0 32 32">
      <path d="M27.078 23.611c2.516-2.731 2.263-6.237 2.255-6.277V6.667a1.335 1.335 0 0 0-1.334-1.334h-8A2.67 2.67 0 0 0 17.332 8v9.333a1.333 1.333 0 0 0 1.333 1.333h4.104a3.87 3.87 0 0 1-.572 1.861c-.677 1.068-1.953 1.797-3.795 2.165l-1.071.213v3.76h1.333c3.711 0 6.541-1.028 8.412-3.056zm-14.675 0c2.517-2.731 2.263-6.237 2.255-6.277V6.667a1.333 1.333 0 0 0-1.333-1.334h-8A2.67 2.67 0 0 0 2.658 8v9.333a1.33 1.33 0 0 0 1.334 1.333h4.104a3.87 3.87 0 0 1-.572 1.861c-.677 1.068-1.953 1.797-3.795 2.165l-1.071.213v3.76h1.333c3.711 0 6.541-1.028 8.412-3.056z"/>
    </symbol>
    <symbol id="icon-sphere" viewBox="0 0 16 16" fill="none">
  <circle cx="8" cy="8" r="8" fill="url(#paint0_radial_2030_389)" />
  <defs>
    <radialGradient id="paint0_radial_2030_389" cx="0" cy="0" r="1" gradientUnits="userSpaceOnUse" gradientTransform="translate(8 8) rotate(90) scale(8)">
      <stop stop-color="#FFC03A" />
      <stop offset="1" stop-color="#80232D" stop-opacity="0.9" />
    </radialGradient>
  </defs>
</symbol>
<symbol id="icon-playstore" viewBox="0 0 37 40" fill="none">
  <path fill-rule="evenodd" clip-rule="evenodd" d="M0.745256 0.92903C0.275842 1.41081 0 2.15694 0 3.12519V37.6913C0 38.6595 0.275842 39.4056 0.745256 39.8874L0.864626 40L20.8333 20.6366V20.1798L0.864626 0.816406L0.745256 0.92903Z" fill="#00D7FE" />
  <mask id="mask0_4012_61" style="mask-type:alpha" maskUnits="userSpaceOnUse" x="20" y="13" width="17" height="14">
    <path d="M27.2639 26.1227L20.833 19.8145V19.3683L27.267 13.0615L35.034 17.3862C37.2104 18.5996 37.2104 20.5831 35.034 21.795L27.412 26.0402L27.2639 26.1227Z" fill="white" />
  </mask>
  <g mask="url(#mask0_4012_61)">
    <path fill-rule="evenodd" clip-rule="evenodd" d="M27.2639 26.1227L20.833 19.8145V19.3683L27.267 13.0615L35.034 17.3862C37.2104 18.5996 37.2104 20.5831 35.034 21.795L27.412 26.0402L27.2639 26.1227Z" fill="url(#paint0_linear_4012_61)" />
  </g>
  <mask id="mask1_4012_61" style="mask-type:alpha" maskUnits="userSpaceOnUse" x="0" y="19" width="28" height="21">
    <path d="M27.4996 26.294L20.7502 19.5918L0.833008 39.3698C1.57033 40.1432 2.78586 40.2385 4.15494 39.4666L27.4996 26.294Z" fill="white" />
  </mask>
  <g mask="url(#mask1_4012_61)">
    <path fill-rule="evenodd" clip-rule="evenodd" d="M27.4996 26.294L20.7502 19.5918L0.833008 39.3698C1.57033 40.1432 2.78586 40.2385 4.15494 39.4666L27.4996 26.294Z" fill="url(#paint1_linear_4012_61)" />
  </g>
  <mask id="mask2_4012_61" style="mask-type:alpha" maskUnits="userSpaceOnUse" x="0" y="0" width="28" height="21">
    <path d="M27.4996 13.7059L4.15494 0.533292C2.78586 -0.238577 1.57033 -0.143285 0.833008 0.630173L20.7502 20.4081L27.4996 13.7059Z" fill="white" />
  </mask>
  <g mask="url(#mask2_4012_61)">
    <path fill-rule="evenodd" clip-rule="evenodd" d="M27.4996 13.7059L4.15494 0.533292C2.78586 -0.238577 1.57033 -0.143285 0.833008 0.630173L20.7502 20.4081L27.4996 13.7059Z" fill="url(#paint2_linear_4012_61)" />
  </g>
  <defs>
    <linearGradient id="paint0_linear_4012_61" x1="33.6181" y1="19.5918" x2="20.833" y2="19.5918" gradientUnits="userSpaceOnUse">
      <stop stop-color="#FFBC00" />
      <stop offset="1" stop-color="#FFDA03" />
    </linearGradient>
    <linearGradient id="paint1_linear_4012_61" x1="23.8316" y1="25.8982" x2="6.80983" y2="40.0275" gradientUnits="userSpaceOnUse">
      <stop stop-color="#E22652" />
      <stop offset="1" stop-color="#FF3A44" />
    </linearGradient>
    <linearGradient id="paint2_linear_4012_61" x1="3.84892" y1="3.01116" x2="15.1927" y2="13.056" gradientUnits="userSpaceOnUse">
      <stop stop-color="#0ED574" />
      <stop offset="1" stop-color="#07F076" />
    </linearGradient>
  </defs>
</symbol>
<symbol id="icon-playstore-text" viewBox="0 0 121 41" fill="none">
  <path fill-rule="evenodd" clip-rule="evenodd" d="M94.0499 35.2554H96.7132V17.637H94.0499V35.2554ZM118.038 23.9834L114.985 31.6221H114.894L111.725 23.9834H108.857L113.608 34.6593L110.899 40.5983H113.678L121 23.9834H118.038ZM102.935 33.2542C102.061 33.2542 100.845 32.8243 100.845 31.7588C100.845 30.3988 102.361 29.8773 103.668 29.8773C104.84 29.8773 105.39 30.1268 106.102 30.4664C105.895 32.0985 104.472 33.2542 102.935 33.2542ZM103.256 23.5986C101.328 23.5986 99.3309 24.4372 98.5045 26.2961L100.868 27.27C101.373 26.2961 102.314 25.9776 103.302 25.9776C104.679 25.9776 106.079 26.7936 106.102 28.2453V28.4257C105.62 28.1537 104.588 27.7464 103.324 27.7464C100.777 27.7464 98.1819 29.129 98.1819 31.7123C98.1819 34.0702 100.271 35.5895 102.612 35.5895C104.403 35.5895 105.39 34.796 106.011 33.8658H106.102V35.2258H108.672V28.4722C108.672 25.3434 106.309 23.5986 103.256 23.5986ZM86.7964 26.1284H83.0084V20.0893H86.7964C88.7875 20.0893 89.9179 21.7171 89.9179 23.1082C89.9179 24.4738 88.7875 26.1284 86.7964 26.1284ZM86.7279 17.637H80.3465V35.2554H83.0084V28.5807H86.7279C89.6795 28.5807 92.5812 26.4695 92.5812 23.1082C92.5812 19.7468 89.6795 17.637 86.7279 17.637ZM51.9291 33.257C50.0893 33.257 48.5493 31.7363 48.5493 29.6476C48.5493 27.5364 50.0893 25.9917 51.9291 25.9917C53.7461 25.9917 55.1705 27.5364 55.1705 29.6476C55.1705 31.7363 53.7461 33.257 51.9291 33.257ZM54.9864 24.9699H54.895C54.297 24.2667 53.148 23.631 51.6993 23.631C48.6635 23.631 45.8817 26.2637 45.8817 29.6476C45.8817 33.0075 48.6635 35.6191 51.6993 35.6191C53.148 35.6191 54.297 34.9834 54.895 34.2562H54.9864V35.1187C54.9864 37.4132 53.7461 38.6393 51.745 38.6393C50.1122 38.6393 49.1002 37.4808 48.6863 36.5041L46.3641 37.4583C47.0307 39.048 48.8019 41 51.745 41C54.8722 41 57.517 39.1833 57.517 34.7565V23.9932H54.9864V24.9699ZM59.3567 35.2554H62.0244V17.6356H59.3567V35.2554ZM65.9551 29.4432C65.8866 27.1277 67.772 25.9466 69.128 25.9466C70.187 25.9466 71.0834 26.4681 71.3817 27.2179L65.9551 29.4432ZM74.2334 27.4448C73.7281 26.1059 72.1867 23.631 69.0366 23.631C65.9094 23.631 63.3118 26.0594 63.3118 29.6251C63.3118 32.985 65.8866 35.6191 69.3349 35.6191C72.1181 35.6191 73.7281 33.9391 74.3947 32.9624L72.3251 31.5996C71.6357 32.5988 70.6923 33.257 69.3349 33.257C67.979 33.257 67.0127 32.6439 66.3919 31.4417L74.5089 28.1269L74.2334 27.4448ZM9.5657 25.4703V28.0127H15.7273C15.5432 29.4432 15.0608 30.4876 14.3257 31.2148C13.428 32.0999 12.0249 33.0752 9.5657 33.0752C5.77196 33.0752 2.80463 30.0563 2.80463 26.3102C2.80463 22.5627 5.77196 19.5439 9.5657 19.5439C11.6124 19.5439 13.1068 20.3388 14.2101 21.3606L16.027 19.5664C14.4856 18.1134 12.4403 17 9.5657 17C4.36894 17 0 21.1788 0 26.3102C0 31.4417 4.36894 35.6191 9.5657 35.6191C12.3703 35.6191 14.4856 34.7114 16.1412 33.0075C17.8426 31.3276 18.3721 28.9669 18.3721 27.0586C18.3721 26.4681 18.3264 25.9241 18.2336 25.4703H9.5657ZM25.3787 33.257C23.5389 33.257 21.9517 31.7588 21.9517 29.6251C21.9517 27.4673 23.5389 25.9917 25.3787 25.9917C27.217 25.9917 28.8042 27.4673 28.8042 29.6251C28.8042 31.7588 27.217 33.257 25.3787 33.257ZM25.3787 23.631C22.0202 23.631 19.2841 26.151 19.2841 29.6251C19.2841 33.0752 22.0202 35.6191 25.3787 35.6191C28.7356 35.6191 31.4718 33.0752 31.4718 29.6251C31.4718 26.151 28.7356 23.631 25.3787 23.631ZM38.671 33.257C36.8312 33.257 35.2441 31.7588 35.2441 29.6251C35.2441 27.4673 36.8312 25.9917 38.671 25.9917C40.5108 25.9917 42.0965 27.4673 42.0965 29.6251C42.0965 31.7588 40.5108 33.257 38.671 33.257ZM38.671 23.631C35.314 23.631 32.5779 26.151 32.5779 29.6251C32.5779 33.0752 35.314 35.6191 38.671 35.6191C42.028 35.6191 44.7641 33.0752 44.7641 29.6251C44.7641 26.151 42.028 23.631 38.671 23.631Z" fill="#FFF3E9" />
  <path d="M56 8H54.7122L49.8212 1.83516V8H48.5333V0H49.8212L54.7255 6.19231V0H56V8Z" fill="#FFF3E9" />
  <path d="M47.7867 4.25134C47.7867 5.01426 47.6336 5.68093 47.3276 6.25134C47.0215 6.81818 46.5879 7.25134 46.0268 7.5508C45.4657 7.85027 44.8111 8 44.0629 8C43.3317 8 42.6835 7.85027 42.1181 7.5508C41.5528 7.24777 41.1128 6.81818 40.7982 6.26203C40.4879 5.70232 40.3285 5.05526 40.32 4.32086V3.75936C40.32 3.01069 40.4752 2.34938 40.7855 1.7754C41.0958 1.20143 41.5336 0.762923 42.099 0.459893C42.6686 0.153298 43.319 0 44.0501 0C44.794 0 45.4487 0.151515 46.014 0.454545C46.5837 0.754011 47.0215 1.19073 47.3276 1.76471C47.6336 2.33512 47.7867 3 47.7867 3.75936V4.25134ZM46.5688 3.74866C46.5688 2.82531 46.3477 2.11765 45.9057 1.62567C45.4636 1.13012 44.8451 0.882353 44.0501 0.882353C43.2765 0.882353 42.6665 1.13012 42.2201 1.62567C41.7781 2.11765 41.5506 2.80214 41.5379 3.67914V4.25134C41.5379 5.14617 41.761 5.85027 42.2074 6.36364C42.658 6.87344 43.2765 7.12834 44.0629 7.12834C44.8536 7.12834 45.4657 6.8877 45.8993 6.40642C46.3329 5.92157 46.556 5.22816 46.5688 4.3262V3.74866Z" fill="#FFF3E9" />
  <path d="M37.3333 0.868132H34.23V8H32.9634V0.868132H29.8667V0H37.3333V0.868132Z" fill="#FFF3E9" />
  <path d="M29.12 8H27.6267V0H29.12V8Z" fill="#FFF3E9" />
  <path d="M23.8933 0.868132H20.79V8H19.5234V0.868132H16.4267V0H23.8933V0.868132Z" fill="#FFF3E9" />
  <path d="M14.2747 4.3022H10.1999V7.13736H14.9333V8H8.96V0H14.8688V0.868132H10.1999V3.43956H14.2747V4.3022Z" fill="#FFF3E9" />
  <path d="M7.46667 6.87166C7.13836 7.24955 6.67918 7.53298 6.08913 7.72192C5.50351 7.90731 4.82028 8 4.03945 8C3.24975 8 2.54878 7.85205 1.93654 7.55615C1.3243 7.25668 0.849594 6.83244 0.512418 6.28342C0.179679 5.7344 0.00887304 5.09804 0 4.37433V3.69519C0 2.52228 0.339394 1.61319 1.01818 0.967914C1.70141 0.322638 2.65969 0 3.89305 0C4.90457 0 5.71868 0.208556 6.33535 0.625668C6.95203 1.03922 7.32913 1.62745 7.46667 2.39037H6.18895C5.94938 1.36007 5.18629 0.84492 3.8997 0.84492C3.04345 0.84492 2.3935 1.08734 1.94985 1.57219C1.51064 2.05348 1.28881 2.75223 1.28437 3.66845V4.30481C1.28437 5.17825 1.53282 5.87344 2.02971 6.39037C2.5266 6.90374 3.19873 7.16043 4.04611 7.16043C4.52525 7.16043 4.9445 7.11765 5.30386 7.03209C5.66322 6.94652 5.96047 6.80214 6.1956 6.59893V4.85027H3.95294V4.01604H7.46667V6.87166Z" fill="#FFF3E9" />
</symbol>
  </defs>
</svg>
