<svg xmlns="http://www.w3.org/2000/svg" aria-hidden="true" style="position:absolute;width:0;height:0;overflow:hidden">
  <defs>
    <symbol id="icon-arrow" viewBox="0 0 32 32">
      <path fill="#80232d" d="M16 31c8.284 0 15-6.716 15-15S24.284 1 16 1C7.716 1 1 7.716 1 16s6.716 15 15 15z" style="fill:var(--color1, #80232d)"/>
      <path fill="#fff3e9" d="m16.85 8 7.65 8-7.65 8v-5.3H7.5v-5.15h9.35V8z" style="fill:var(--color2, #fff3e9)"/>
    </symbol>
    <symbol id="icon-arrow-left" viewBox="0 0 32 32">
      <path d="M16 0c7.953 0 14.4 6.447 14.4 14.4S23.953 28.8 16 28.8 1.6 22.353 1.6 14.4 8.047 0 16 0z"/>
      <path fill="none" stroke="#ffc03a" stroke-width=".8" d="M16 .4c7.732 0 14 6.268 14 14s-6.268 14-14 14-14-6.268-14-14S8.268.4 16 .4z" style="stroke:var(--color3, #ffc03a)"/>
      <path fill="none" stroke="#fff3e9" stroke-linecap="round" stroke-linejoin="round" stroke-width=".8" d="m18.4 19.2-4.8-4.8 4.8-4.8" style="stroke:var(--color2, #fff3e9)"/>
    </symbol>
    <symbol id="icon-arrow-right" viewBox="0 0 32 32">
      <path d="M16 0c7.953 0 14.4 6.447 14.4 14.4S23.953 28.8 16 28.8 1.6 22.353 1.6 14.4 8.047 0 16 0z"/>
      <path fill="none" stroke="#ffc03a" stroke-width=".8" d="M16 .4c7.732 0 14 6.268 14 14s-6.268 14-14 14-14-6.268-14-14S8.268.4 16 .4z" style="stroke:var(--color3, #ffc03a)"/>
      <path fill="none" stroke="#fff3e9" stroke-linecap="round" stroke-linejoin="round" stroke-width=".8" d="m13.6 19.2 4.8-4.8-4.8-4.8" style="stroke:var(--color2, #fff3e9)"/>
    </symbol>
    <symbol id="icon-arrow-back" viewBox="0 0 32 32">
      <path fill="none" stroke="#fff3e9" stroke-linecap="round" stroke-linejoin="round" stroke-width="1.333" d="M21.333 26 10.666 16 21.333 6" style="stroke:var(--color2, #fff3e9)"/>
    </symbol>
    <symbol id="icon-check" viewBox="0 0 32 32">
      <path fill="#ffc03a" d="M31.5 9.4c0 .533-.187.987-.56 1.36l-17.2 17.2c-.373.373-.827.56-1.36.56s-.987-.187-1.36-.56L1.06 18c-.373-.373-.56-.827-.56-1.36s.187-.987.56-1.36l2.72-2.72c.373-.373.827-.56 1.36-.56s.987.187 1.36.56l5.88 5.9L25.5 5.32c.373-.373.827-.56 1.36-.56s.987.187 1.36.56l2.72 2.72c.373.373.56.827.56 1.36z" style="fill:var(--color3, #ffc03a)"/>
    </symbol>
    <symbol id="icon-close" viewBox="0 0 32 32">
      <path fill="none" stroke="#ffc03a" stroke-width="1.333" d="M5.333.667h21.333a4.667 4.667 0 0 1 4.667 4.667v21.333a4.667 4.667 0 0 1-4.667 4.667H5.333a4.667 4.667 0 0 1-4.667-4.667V5.334A4.667 4.667 0 0 1 5.333.667z" style="stroke:var(--color3, #ffc03a)"/>
      <path fill="none" stroke="#fff3e9" stroke-linecap="round" stroke-linejoin="round" stroke-width="1.333" d="m7 7 9 9m0 0-9 9m9-9 9 9m-9-9 9-9" style="stroke:var(--color2, #fff3e9)"/>
    </symbol>
    <symbol id="icon-hand" viewBox="0 0 32 32">
      <path fill="#ffc03a" d="M12.571 29.714c-.631 0-1.17-.223-1.616-.67s-.67-.985-.67-1.616v-16l-2.696 3.607c-.488.643-1.125.964-1.911.964-.619 0-1.149-.226-1.589-.679s-.661-.988-.661-1.607c0-.512.155-.97.464-1.375l6.857-9.143c.452-.607 1.06-.911 1.821-.911h12.822c.262 0 .497.08.705.241s.342.366.402.616l1.643 6.571a14.22 14.22 0 0 1 .429 3.464v3.875c0 .488-.167.911-.5 1.268s-.738.536-1.214.536-.881-.167-1.214-.5a1.654 1.654 0 0 1-.5-1.214h-.571v1.089c0 .571-.191 1.057-.571 1.455s-.857.598-1.429.598c-.548 0-1.018-.196-1.411-.589s-.589-.863-.589-1.411V17.14h-.571v1.607c0 .655-.22 1.217-.661 1.688s-.982.705-1.625.705c-.631 0-1.17-.223-1.616-.67s-.67-.985-.67-1.616V17.14h-.571v10.178c0 .655-.22 1.217-.661 1.688s-.982.705-1.625.705zm0 2.286c1.274 0 2.354-.461 3.241-1.384s1.33-2.021 1.33-3.295v-3.928c.262.024.452.036.571.036 1.178 0 2.208-.411 3.089-1.232.56.25 1.149.375 1.768.375 1.345 0 2.44-.518 3.286-1.554.321.083.655.125 1 .125 1.119 0 2.066-.402 2.839-1.205s1.161-1.765 1.161-2.884v-3.875c0-1.381-.167-2.72-.5-4.018L28.713 2.59c-.191-.762-.595-1.384-1.214-1.866S26.177.001 25.392.001H12.57c-.714 0-1.396.164-2.045.491s-1.188.771-1.616 1.33l-6.857 9.143a4.468 4.468 0 0 0-.911 2.75c0 1.25.443 2.324 1.33 3.223s1.955 1.348 3.205 1.348a4.46 4.46 0 0 0 2.321-.625v9.768c0 1.262.446 2.339 1.339 3.232S11.306 32 12.568 32zm2.286-25.143v6.857h-.571V6.857h.571zm4.572 0v6.857h-.571V6.857h.571zm4.571 0v6.857h-.571V6.857H24z" style="fill:var(--color3, #ffc03a)"/>
    </symbol>
   <symbol id="icon-mail" viewBox="0 0 24 24" fill="none">
  <path d="M20.901 3.89317C20.0508 3.11317 15.5082 2.90137 11.7222 2.90137C7.93616 2.90137 3.41516 3.11377 2.54336 3.89317C0.856756 4.67317 0.535156 8.67817 0.535156 11.6902C0.535156 13.9198 0.711556 16.6936 1.48736 18.3004C1.80836 18.9652 2.40176 19.792 3.08216 20.1064C3.93656 20.8876 8.48036 21.0994 12.261 21.0994C16.041 21.0994 20.5734 20.9164 21.4392 20.1076C23.1612 19.3276 23.4648 15.3232 23.4648 12.3106C23.4648 10.351 23.3214 7.96957 22.7568 6.33097C22.4526 5.45137 21.792 4.30657 20.901 3.89317Z" fill="#210F0F" stroke="#210F0F" stroke-width="0.5" stroke-miterlimit="10" />
  <path d="M20.901 19.4866C22.6212 18.7066 22.9254 14.7022 22.9254 11.6902C22.9254 8.67817 22.587 4.67377 20.901 3.89317C20.0508 3.11317 15.5082 2.90137 11.7222 2.90137C7.93616 2.90137 3.41516 3.11377 2.54336 3.89317C0.856756 4.67317 0.535156 8.67817 0.535156 11.6902C0.535156 14.7022 0.856756 18.706 2.54336 19.4866C3.39776 20.2666 7.94155 20.4778 11.7216 20.4778C15.5016 20.4778 20.0346 20.2954 20.901 19.4866Z" fill="#FFC03A" stroke="#210F0F" stroke-width="0.5" stroke-miterlimit="10" />
  <path d="M2.92773 7.6748C5.02173 9.8606 8.05593 12.224 8.99073 12.6308C9.84071 13.0474 10.7747 13.264 11.7213 13.264C12.6679 13.264 13.602 13.0474 14.4519 12.6308C15.3819 12.2642 18.4161 9.8834 20.5101 7.6748M8.52573 12.488L4.53393 16.4858M14.9169 12.488L18.9159 16.4858" stroke="#210F0F" stroke-width="0.5" stroke-miterlimit="10" stroke-linecap="round" />
</symbol>
    <symbol id="icon-menu" viewBox="0 0 32 32">
      <path fill="none" stroke="#ffc03a" stroke-width="1.333" d="M5.333.667h21.333a4.667 4.667 0 0 1 4.667 4.667v21.333a4.667 4.667 0 0 1-4.667 4.667H5.333a4.667 4.667 0 0 1-4.667-4.667V5.334A4.667 4.667 0 0 1 5.333.667z" style="stroke:var(--color3, #ffc03a)"/>
      <path fill="none" stroke="#fff3e9" stroke-linecap="round" stroke-width="1.333" d="M7.5 9.5h17m-17 12h17m-17-6h17" style="stroke:var(--color2, #fff3e9)"/>
    </symbol>
    <symbol id="icon-quote" viewBox="0 0 32 32">
      <path d="M27.078 23.611c2.516-2.731 2.263-6.237 2.255-6.277V6.667a1.335 1.335 0 0 0-1.334-1.334h-8A2.67 2.67 0 0 0 17.332 8v9.333a1.333 1.333 0 0 0 1.333 1.333h4.104a3.87 3.87 0 0 1-.572 1.861c-.677 1.068-1.953 1.797-3.795 2.165l-1.071.213v3.76h1.333c3.711 0 6.541-1.028 8.412-3.056zm-14.675 0c2.517-2.731 2.263-6.237 2.255-6.277V6.667a1.333 1.333 0 0 0-1.333-1.334h-8A2.67 2.67 0 0 0 2.658 8v9.333a1.33 1.33 0 0 0 1.334 1.333h4.104a3.87 3.87 0 0 1-.572 1.861c-.677 1.068-1.953 1.797-3.795 2.165l-1.071.213v3.76h1.333c3.711 0 6.541-1.028 8.412-3.056z"/>
    </symbol>
    <symbol id="icon-sphere" viewBox="0 0 16 16" fill="none">
  <circle cx="8" cy="8" r="8" fill="url(#paint0_radial_2030_389)" />
  <defs>
    <radialGradient id="paint0_radial_2030_389" cx="0" cy="0" r="1" gradientUnits="userSpaceOnUse" gradientTransform="translate(8 8) rotate(90) scale(8)">
      <stop stop-color="#FFC03A" />
      <stop offset="1" stop-color="#80232D" stop-opacity="0.9" />
    </radialGradient>
  </defs>
</symbol>
<symbol id="icon-playstore" viewBox="0 0 37 40" fill="none">
  <path fill-rule="evenodd" clip-rule="evenodd" d="M0.745256 0.92903C0.275842 1.41081 0 2.15694 0 3.12519V37.6913C0 38.6595 0.275842 39.4056 0.745256 39.8874L0.864626 40L20.8333 20.6366V20.1798L0.864626 0.816406L0.745256 0.92903Z" fill="#00D7FE" />
  <mask id="mask0_4012_61" style="mask-type:alpha" maskUnits="userSpaceOnUse" x="20" y="13" width="17" height="14">
    <path d="M27.2639 26.1227L20.833 19.8145V19.3683L27.267 13.0615L35.034 17.3862C37.2104 18.5996 37.2104 20.5831 35.034 21.795L27.412 26.0402L27.2639 26.1227Z" fill="white" />
  </mask>
  <g mask="url(#mask0_4012_61)">
    <path fill-rule="evenodd" clip-rule="evenodd" d="M27.2639 26.1227L20.833 19.8145V19.3683L27.267 13.0615L35.034 17.3862C37.2104 18.5996 37.2104 20.5831 35.034 21.795L27.412 26.0402L27.2639 26.1227Z" fill="url(#paint0_linear_4012_61)" />
  </g>
  <mask id="mask1_4012_61" style="mask-type:alpha" maskUnits="userSpaceOnUse" x="0" y="19" width="28" height="21">
    <path d="M27.4996 26.294L20.7502 19.5918L0.833008 39.3698C1.57033 40.1432 2.78586 40.2385 4.15494 39.4666L27.4996 26.294Z" fill="white" />
  </mask>
  <g mask="url(#mask1_4012_61)">
    <path fill-rule="evenodd" clip-rule="evenodd" d="M27.4996 26.294L20.7502 19.5918L0.833008 39.3698C1.57033 40.1432 2.78586 40.2385 4.15494 39.4666L27.4996 26.294Z" fill="url(#paint1_linear_4012_61)" />
  </g>
  <mask id="mask2_4012_61" style="mask-type:alpha" maskUnits="userSpaceOnUse" x="0" y="0" width="28" height="21">
    <path d="M27.4996 13.7059L4.15494 0.533292C2.78586 -0.238577 1.57033 -0.143285 0.833008 0.630173L20.7502 20.4081L27.4996 13.7059Z" fill="white" />
  </mask>
  <g mask="url(#mask2_4012_61)">
    <path fill-rule="evenodd" clip-rule="evenodd" d="M27.4996 13.7059L4.15494 0.533292C2.78586 -0.238577 1.57033 -0.143285 0.833008 0.630173L20.7502 20.4081L27.4996 13.7059Z" fill="url(#paint2_linear_4012_61)" />
  </g>
  <defs>
    <linearGradient id="paint0_linear_4012_61" x1="33.6181" y1="19.5918" x2="20.833" y2="19.5918" gradientUnits="userSpaceOnUse">
      <stop stop-color="#FFBC00" />
      <stop offset="1" stop-color="#FFDA03" />
    </linearGradient>
    <linearGradient id="paint1_linear_4012_61" x1="23.8316" y1="25.8982" x2="6.80983" y2="40.0275" gradientUnits="userSpaceOnUse">
      <stop stop-color="#E22652" />
      <stop offset="1" stop-color="#FF3A44" />
    </linearGradient>
    <linearGradient id="paint2_linear_4012_61" x1="3.84892" y1="3.01116" x2="15.1927" y2="13.056" gradientUnits="userSpaceOnUse">
      <stop stop-color="#0ED574" />
      <stop offset="1" stop-color="#07F076" />
    </linearGradient>
  </defs>
</symbol>
  </defs>
</svg>
